<?xml version="1.0" standalone="no"?><!DOCTYPE svg PUBLIC "-//W3C//DTD SVG 1.1//EN" "http://www.w3.org/Graphics/SVG/1.1/DTD/svg11.dtd"><svg t="1570167839744" class="icon" viewBox="0 0 1024 1024" version="1.1" xmlns="http://www.w3.org/2000/svg" p-id="4340" xmlns:xlink="http://www.w3.org/1999/xlink" width="56" height="56"><defs><style type="text/css"></style></defs><path d="M957.44 236.30848c0 33.47968-25.6 59.07968-59.07968 59.07968H135.87968C102.4 295.38304 76.8 269.78304 76.8 236.30848c0-33.47968 25.6-59.07968 59.07968-59.07968h762.48064c33.47968 0 59.07968 25.6 59.07968 59.07968zM957.44 512c0 33.47968-25.6 59.07968-59.07968 59.07968H135.87968C102.4 571.07968 76.8 545.47968 76.8 512s25.6-59.07968 59.07968-59.07968h762.48064C931.84 452.92032 957.44 478.52032 957.44 512z m0 275.69152c0 33.47968-25.6 59.07968-59.07968 59.07968H135.87968c-33.47968 0-59.07968-25.6-59.07968-59.07968 0-33.47456 25.6-59.07456 59.07968-59.07456h762.48064c33.47968 0 59.07968 25.6 59.07968 59.07456z" p-id="4341" fill="#ffffff"></path></svg>